<svg width="40" height="40" viewBox="0 0 512 512"><path fill="#EDC92C" d="M7.9,256C7.9,119,119,7.9,256,7.9C393,7.9,504.1,119,504.1,256c0,137-111.1,248.1-248.1,248.1C119,504.1,7.9,393,7.9,256z"/><path fill="#FFF" d="M431.9,225.8c-87,0-174.1,0-261.1,0c-0.7,0-1.4,0.1-2.1,0.1c32-29.8,64.1-59.6,96.1-89.5c27.7-25.8-14.1-67.1-41.8-41.3c-49.9,46.5-99.8,93-149.8,139.4c-11.5,10.7-11.1,31,0.2,41.5c49.9,46.5,99.8,92.9,149.8,139.4c27.7,25.7,69.1-15.9,41.3-41.8c-32-29.7-63.9-59.5-95.9-89.2c0.5,0,1.1,0.1,1.6,0.1c87,0,174.1,0,261.1,0C469.4,284.6,469.8,225.8,431.9,225.8z"/></svg>
