<svg viewBox="0 0 48 48"><path fill="#e89419" d="M3 22H45V42H3z"/><path fill="#c62828" d="M31,3v4h-2.2c-2.4,0-1.2-1-4.8-1V2c3.6,0,2.4,1,4.8,1H31z"/><path fill="#805a26" d="M6 26H9V31H6zM11 26H14V31H11zM11 34H14V39H11zM6 34H9V39H6zM34 26H37V31H34zM39 26H42V31H39zM39 34H42V39H39zM34 34H37V39H34z"/><path fill="#00796b" d="M3 17H45V23H3z"/><path fill="#ffb74d" d="M24 9.5L17 16.5 17 42 31 42 31 16.5z"/><path fill="#fafafa" d="M24 19A5 5 0 1 0 24 29A5 5 0 1 0 24 19Z"/><path fill="#795548" d="M26,25h-2c-0.6,0-1-0.4-1-1v-2c0-0.6,0.4-1,1-1s1,0.4,1,1v1h1c0.6,0,1,0.4,1,1S26.6,25,26,25z"/><path fill="#4db6ac" d="M24 8L15 17 15 19.9 24 10.9 33 19.9 33 17z"/><path fill="#805a26" d="M24,32c-1.7,0-3,1.3-3,3s0,7,0,7h6c0,0,0-5.3,0-7S25.7,32,24,32z"/></svg>
